<?xml version="1.0" encoding="UTF-8" standalone="no"?>
<!-- Created with Inkscape (http://www.inkscape.org/) -->

<svg
   width="122.29438mm"
   height="24.170765mm"
   viewBox="0 0 122.29437 24.170765"
   version="1.1"
   id="svg1"
   inkscape:version="1.4.2 (ebf0e940d0, 2025-05-08)"
   sodipodi:docname="logo.svg"
   xmlns:inkscape="http://www.inkscape.org/namespaces/inkscape"
   xmlns:sodipodi="http://sodipodi.sourceforge.net/DTD/sodipodi-0.dtd"
   xmlns="http://www.w3.org/2000/svg"
   xmlns:svg="http://www.w3.org/2000/svg">
  <sodipodi:namedview
     id="namedview1"
     pagecolor="#ffffff"
     bordercolor="#000000"
     borderopacity="0.25"
     inkscape:showpageshadow="2"
     inkscape:pageopacity="0.0"
     inkscape:pagecheckerboard="0"
     inkscape:deskcolor="#d1d1d1"
     inkscape:document-units="mm"
     inkscape:zoom="1.2617283"
     inkscape:cx="236.18397"
     inkscape:cy="110.56263"
     inkscape:window-width="1920"
     inkscape:window-height="1017"
     inkscape:window-x="0"
     inkscape:window-y="0"
     inkscape:window-maximized="1"
     inkscape:current-layer="layer1" />
  <defs
     id="defs1" />
  <g
     inkscape:label="Layer 1"
     inkscape:groupmode="layer"
     id="layer1"
     transform="translate(-7.758868,-9.0170628)">
    <path
       style="fill:#000000;stroke-width:0.0905632"
       d="m 26.230075,29.84176 v -2.716897 h 0.31697 0.31697 v 0.276301 0.276295 l 0.296298,-0.225999 0.296304,-0.226006 0.442192,-0.09909 0.442186,-0.0991 0.48957,0.101633 0.489558,0.101632 0.316865,0.278209 0.316852,0.278203 0.192114,0.370828 0.19212,0.370827 -0.0031,0.603592 -0.0031,0.603586 -0.24454,0.41727 -0.244535,0.417271 -0.37989,0.24519 -0.379891,0.245191 -0.685469,0.0019 -0.685456,0.0019 -0.378665,-0.250332 -0.378652,-0.250339 v 0.997483 0.997483 h -0.362254 -0.362254 z m 2.780419,0.456484 0.289942,-0.176782 0.151674,-0.293312 0.151674,-0.293306 -0.0095,-0.424376 -0.0095,-0.424376 -0.08464,-0.222629 -0.08463,-0.222617 -0.277323,-0.233346 -0.277317,-0.233346 -0.280935,-0.0617 -0.280947,-0.0617 -0.300703,0.05644 -0.300696,0.05644 -0.246579,0.193953 -0.246566,0.193953 -0.124868,0.298857 -0.124869,0.298856 v 0.313985 0.313984 l 0.09659,0.254947 0.0966,0.254942 0.197738,0.213671 0.197739,0.213672 0.181124,0.07492 0.181124,0.07492 0.407538,0.0056 0.407532,0.0056 z m 5.460848,-1.180986 v -1.992395 h 0.362255 0.362248 l 0.0071,0.294328 0.0071,0.294334 0.04454,-0.109778 0.04454,-0.109772 0.287923,-0.173022 0.287929,-0.173021 0.384896,-0.05786 0.38489,-0.05786 v 0.35155 0.351543 l -0.411206,0.04634 -0.411212,0.04634 -0.189951,0.169193 -0.189952,0.169199 -0.123339,0.291423 -0.123351,0.291423 v 1.18023 1.180236 h -0.362199 -0.362254 z m 6.837528,1.783661 -0.452816,-0.218417 -0.152015,-0.171318 -0.152008,-0.171324 -0.187598,-0.437682 -0.187604,-0.437682 v -0.338615 -0.338609 l 0.142524,-0.418298 0.142531,-0.418293 0.389251,-0.358797 0.389251,-0.358798 0.512268,-0.106346 0.512268,-0.106347 0.452816,0.09711 0.452816,0.09711 0.246486,0.156556 0.246479,0.156561 0.167124,0.18346 0.16713,0.183459 0.14411,0.271692 0.144104,0.271692 0.0056,0.633941 0.0056,0.633946 -0.243766,0.414644 -0.243766,0.414644 -0.388148,0.256861 -0.388149,0.256869 -0.635972,0.03519 -0.635972,0.03519 z m 1.684674,-0.632206 0.307721,-0.207 0.154133,-0.313742 0.154139,-0.313743 0.0043,-0.343218 0.0043,-0.343223 -0.175914,-0.34481 -0.175908,-0.34481 -0.254266,-0.169081 -0.254266,-0.169075 -0.504388,-0.0019 -0.504382,-0.0019 -0.251237,0.164615 -0.251231,0.164615 -0.183057,0.413826 -0.183056,0.413832 0.05402,0.394288 0.05402,0.394287 0.156252,0.23847 0.156246,0.238463 0.275564,0.168047 0.27557,0.16804 0.416781,3.47e-4 0.416781,3.41e-4 z m 6.189184,0.622065 -0.457977,-0.232721 -0.184308,-0.249657 -0.184308,-0.249664 -0.116215,-0.352714 -0.116208,-0.352714 0.04584,-0.571404 0.04584,-0.571416 0.169249,-0.288876 0.169248,-0.288883 0.317844,-0.256868 0.317837,-0.256862 0.481182,-0.09126 0.481183,-0.09125 0.414365,0.09286 0.414365,0.09287 0.258268,0.1839 0.258262,0.183899 v -1.047645 -1.047647 h 0.36226 0.362248 v 2.807466 2.807466 h -0.31697 -0.31697 v -0.321245 -0.321238 l -0.358067,0.287749 -0.358072,0.287756 -0.615486,0.04039 -0.615486,0.04039 z m 1.740006,-0.604943 0.307219,-0.189865 0.150683,-0.285593 0.150689,-0.285587 v -0.452816 -0.452817 l -0.15041,-0.285054 -0.150417,-0.285054 -0.413479,-0.200167 -0.413485,-0.200167 -0.397682,0.05966 -0.397683,0.05966 -0.234591,0.184525 -0.234598,0.184531 -0.134031,0.259197 -0.134037,0.259198 v 0.416527 0.416533 l 0.127241,0.244546 0.127242,0.244553 0.21237,0.192244 0.212371,0.192237 0.135846,0.04968 0.135846,0.04968 0.396846,0.0071 0.396846,0.0071 z m 6.778106,0.763406 -0.181124,-0.04863 -0.303942,-0.229122 -0.303942,-0.229121 -0.126238,-0.302127 -0.126232,-0.302122 v -1.406644 -1.406638 h 0.362254 0.362254 l 0.0019,1.381091 0.0019,1.38109 0.156469,0.193167 0.156475,0.193173 0.197813,0.101161 0.197812,0.101162 0.345566,-0.0012 0.345571,-0.0012 0.223689,-0.113192 0.223689,-0.113185 0.206485,-0.306402 0.206492,-0.306414 v -1.254494 -1.254493 h 0.362254 0.362254 v 1.992395 1.992389 h -0.317038 -0.316976 v -0.321239 -0.321238 l -0.366566,0.294582 -0.366566,0.294582 -0.561709,0.02075 -0.561708,0.02075 z m 8.126536,-0.04132 -0.295858,-0.08538 -0.396734,-0.381905 -0.396741,-0.38191 -0.139545,-0.473123 -0.139544,-0.473129 0.04157,-0.251379 0.04157,-0.251386 0.0495,-0.243803 0.0495,-0.243803 0.264438,-0.365042 0.264425,-0.365036 0.386111,-0.197763 0.38611,-0.197763 0.633947,-0.0031 0.63394,-0.0031 0.378906,0.197193 0.378912,0.1972 0.140789,0.200997 0.140778,0.201003 -0.27007,0.170995 -0.270075,0.171002 -0.274926,-0.231339 -0.274926,-0.231333 -0.323041,-0.06058 -0.323047,-0.06059 -0.348737,0.104482 -0.348743,0.104488 -0.276469,0.3354 -0.276462,0.335406 v 0.571533 0.571534 l 0.355756,0.38139 0.355749,0.381384 h 0.58922 0.589208 l 0.265974,-0.254812 0.265962,-0.254817 0.300455,0.182716 0.300455,0.182716 -0.3368,0.317652 -0.336806,0.317639 -0.33688,0.09356 -0.336874,0.09356 -0.407532,-0.0077 -0.407539,-0.0077 z m 7.177567,-0.111433 -0.453919,-0.211379 -0.243728,-0.319541 -0.243729,-0.319547 -0.106545,-0.423112 -0.106538,-0.423119 0.05743,-0.418837 0.05743,-0.418832 0.223862,-0.381997 0.223868,-0.381997 0.32983,-0.194604 0.329825,-0.194604 0.439572,-0.09427 0.439571,-0.09427 0.483499,0.100368 0.483493,0.100381 0.334142,0.275428 0.334143,0.275421 v 0.08165 0.08164 l -0.260697,0.134812 -0.260696,0.134812 -0.16122,-0.178151 -0.161227,-0.178144 -0.362291,-0.09756 -0.362291,-0.09756 -0.322131,0.0604 -0.322136,0.0604 -0.240941,0.171571 -0.240942,0.171566 -0.147015,0.309796 -0.147003,0.309803 1.8e-4,0.34857 1.79e-4,0.348564 0.15834,0.315167 0.158346,0.315167 0.307727,0.205569 0.307721,0.205575 h 0.398643 0.398636 l 0.25115,-0.129874 0.251151,-0.129874 0.116896,-0.140858 0.116902,-0.140852 0.261396,0.154406 0.261397,0.154412 v 0.06164 0.06164 l -0.314492,0.276128 -0.314499,0.276133 -0.34209,0.095 -0.342084,0.095 -0.407538,-3.47e-4 -0.407532,-3.41e-4 z m 6.566944,-1.779244 v -1.992395 h 0.362255 0.362254 v 1.992395 1.992396 h -0.362254 -0.362255 z m 5.99945,1.819226 -0.385274,-0.180567 -0.238036,-0.253306 -0.238042,-0.253312 -0.134861,-0.31697 -0.134861,-0.31697 -2.73e-4,-0.551122 -2.73e-4,-0.551116 0.158904,-0.334866 0.158903,-0.334867 0.362136,-0.30997 0.362131,-0.309977 0.489049,-0.10152 0.48905,-0.101527 0.439572,0.09427 0.439572,0.09427 0.329824,0.194604 0.32983,0.194604 0.223862,0.381997 0.223869,0.381997 0.05743,0.418832 0.05743,0.418837 -0.107716,0.427777 -0.107715,0.427771 -0.185467,0.260467 -0.185473,0.260467 -0.374501,0.236413 -0.374495,0.236413 -0.634603,0.03395 -0.63461,0.03395 z m 1.754148,-0.738156 0.239325,-0.220721 0.124169,-0.291423 0.124175,-0.291423 v -0.328832 -0.328833 l -0.147332,-0.310478 -0.147331,-0.310484 -0.221297,-0.174068 -0.221291,-0.174068 -0.397689,-0.05966 -0.397682,-0.05966 -0.390348,0.188966 -0.390354,0.188967 -0.153136,0.259247 -0.153142,0.259246 -0.05829,0.364435 -0.05829,0.364441 0.184593,0.417302 0.184587,0.417301 0.300498,0.188539 0.300486,0.188539 0.519503,-0.03333 0.519497,-0.03333 z m 5.287529,-1.08107 v -1.992395 h 0.362251 0.36226 v 0.275217 0.275217 l 0.20376,-0.193352 0.20377,-0.193353 0.22641,-0.08909 0.22641,-0.0891 0.61032,-6.19e-4 0.61033,-6.2e-4 0.32014,0.197857 0.32015,0.197862 0.15578,0.285587 0.15577,0.285587 0.0308,1.516937 0.0308,1.516937 h -0.36989 -0.36989 v -1.391523 -1.391516 l -0.18598,-0.236438 -0.18598,-0.236437 -0.3574,-0.09624 -0.3574,-0.09624 -0.33961,0.09552 -0.33962,0.09553 -0.15752,0.121016 -0.15753,0.121009 -0.1368,0.327427 -0.1368,0.327427 v 1.180236 1.18023 h -0.36226 -0.362251 z m 9.306666,1.902218 -0.24778,-0.07461 -0.31905,-0.197181 -0.31904,-0.197181 -0.22878,-0.390378 -0.22877,-0.390373 -0.0519,-0.439454 -0.0519,-0.439454 0.10014,-0.371218 0.10013,-0.371212 0.20664,-0.306631 0.20663,-0.306631 0.35121,-0.197007 0.35121,-0.197001 0.37945,-0.05693 0.37945,-0.05693 0.42736,0.09577 0.42735,0.09577 0.27453,0.202043 0.27454,0.202038 0.22072,0.37561 0.22073,0.375623 0.0547,0.46209 0.0547,0.462096 h -1.64275 -1.64276 l 3.4e-4,0.113204 3.4e-4,0.113204 0.17996,0.295164 0.17996,0.295152 0.29516,0.179966 0.29516,0.179959 0.5081,3.41e-4 0.5081,3.41e-4 0.32154,-0.218194 0.32153,-0.2182 0.1987,0.211491 0.19868,0.211497 -0.0659,0.106576 -0.0659,0.106575 -0.46436,0.216218 -0.46436,0.216218 -0.4981,-0.0069 -0.4981,-0.0069 z m 1.83229,-2.332392 -3.4e-4,-0.158488 -0.18277,-0.299779 -0.18278,-0.299786 -0.31207,-0.130389 -0.31206,-0.1304 h -0.2775 -0.27751 l -0.31209,0.1304 -0.31208,0.130389 -0.18276,0.299786 -0.18278,0.299779 -3.4e-4,0.158488 -2.7e-4,0.158482 h 1.26789 1.26788 z m 5.2983,2.367745 -0.18113,-0.04429 -0.33961,-0.145336 -0.33961,-0.14533 v -0.08276 -0.08276 l 0.10283,-0.197813 0.10283,-0.197813 0.0195,-0.02428 0.0196,-0.02428 0.39838,0.180746 0.39838,0.180752 0.58867,-0.0012 0.58866,-0.0012 0.1698,-0.128586 0.16981,-0.128586 v -0.235137 -0.235167 l -0.16981,-0.125315 -0.1698,-0.125315 -0.45282,-0.05761 -0.45282,-0.05761 -0.42902,-0.13657 -0.42903,-0.136571 -0.18228,-0.231724 -0.18227,-0.231723 v -0.358704 -0.358699 l 0.18826,-0.264395 0.18827,-0.264401 0.28719,-0.150794 0.28719,-0.1508 0.72451,0.0043 0.72451,0.0043 0.33869,0.143063 0.33869,0.143069 -0.0584,0.163487 -0.0584,0.163494 -0.0795,0.103441 -0.0795,0.103441 -0.41895,-0.126083 -0.41894,-0.126083 h -0.35235 -0.35237 l -0.26718,0.138175 -0.2672,0.138169 v 0.26704 0.267034 l 0.24905,0.12643 0.24905,0.126424 0.56509,0.09762 0.5651,0.09762 0.32189,0.152745 0.32188,0.152746 0.13186,0.254978 0.13185,0.254979 -3.4e-4,0.20827 -3.4e-4,0.208263 -0.17678,0.28993 -0.17679,0.289936 -0.29833,0.155533 -0.29834,0.155533 -0.67922,0.02472 -0.67923,0.02472 z M 79.623639,26.167466 79.481325,26.025154 v -0.13533 -0.13533 l 0.09375,-0.175176 0.09375,-0.175172 h 0.25447 0.254465 l 0.149883,0.165616 0.149884,0.165619 v 0.106071 0.106074 l -0.18113,0.181129 -0.18113,0.181124 h -0.174652 -0.174663 z m -65.12152,-2.814305 -0.362255,-0.03488 -0.63394,-0.146006 -0.633946,-0.146006 -0.724509,-0.371559 -0.724502,-0.371559 -0.690573,-0.680945 -0.690567,-0.680942 -0.3165367,-0.633946 -0.316536,-0.633942 -0.163729,-0.54338 -0.163729,-0.54338 -6.2e-4,-1.086761 -6.19e-4,-1.08676 0.195384,-0.634932 0.195373,-0.634932 0.324905,-0.539553 0.3249057,-0.539557 0.321244,-0.392041 0.321257,-0.392045 0.465857,-0.349554 0.465868,-0.349557 0.55461,-0.28009 0.554609,-0.280093 0.713277,-0.17972 0.713278,-0.179722 0.950916,1.82e-4 0.950917,1.81e-4 0.644657,0.167478 0.644663,0.167477 0.487378,0.225786 0.487377,0.225786 0.569885,0.422909 0.56988,0.422909 0.05625,0.146646 0.05625,0.146642 -0.668142,0.611153 -0.668148,0.61115 -0.399603,-0.351738 -0.39959,-0.351737 -0.481473,-0.227771 -0.481468,-0.227774 -0.666122,-0.09265 -0.66611,-0.09265 -0.667528,0.09467 -0.667523,0.09467 -0.550762,0.27153 -0.550769,0.271529 -0.338392,0.31985 -0.338398,0.319853 -0.257388,0.380335 -0.257388,0.380339 -0.161363,0.407537 -0.161344,0.407533 -0.04782,0.743355 -0.04782,0.743357 0.111061,0.569812 0.111067,0.569815 0.235663,0.435385 0.235663,0.435385 0.442601,0.449636 0.442589,0.44963 0.444286,0.22514 0.444286,0.225136 0.518648,0.13509 0.518673,0.135086 h 0.550608 0.550608 l 0.519887,-0.135411 0.519887,-0.135416 0.336974,-0.17191 0.336973,-0.17191 0.405878,-0.360185 0.405878,-0.360189 0.705379,0.636924 0.705379,0.636924 -0.205736,0.219943 -0.205755,0.219947 -0.41714,0.306884 -0.41714,0.30688 -0.533777,0.261275 -0.53377,0.261274 -0.633946,0.144301 -0.633947,0.144302 -0.63394,0.03725 -0.633946,0.03725 z m 105.732731,-0.006 -0.40754,-0.02728 -0.40753,-0.09867 -0.40754,-0.09867 -0.4981,-0.186882 -0.4981,-0.186882 -0.60598,-0.396437 -0.60599,-0.396432 -0.41562,-0.462269 -0.41562,-0.462269 -0.3062,-0.553148 -0.30619,-0.553153 -0.19775,-0.633942 -0.19775,-0.633946 -0.007,-1.08676 -0.007,-1.086761 0.15498,-0.588661 0.15498,-0.588661 0.26537,-0.54338 0.26538,-0.54338 0.37341,-0.452819 0.3734,-0.452814 0.45864,-0.378645 0.45863,-0.378641 0.55623,-0.282328 0.55624,-0.282332 0.67463,-0.175185 0.67464,-0.17519 0.86035,-1.78e-4 0.86035,-1.81e-4 0.70939,0.178749 0.70939,0.178749 0.64128,0.336984 0.64128,0.336985 0.59991,0.592276 0.59991,0.592276 0.28352,0.498099 0.28352,0.498099 0.18915,0.498099 0.18915,0.498099 0.10722,0.800198 0.10723,0.800198 -0.10606,0.829943 -0.10605,0.829942 -0.17311,0.469837 -0.17311,0.469836 -0.2974,0.526362 -0.2974,0.526361 -0.64194,0.633943 -0.64195,0.633942 -0.67801,0.333203 -0.67803,0.333202 -0.54337,0.13279 -0.54338,0.13279 -0.58866,0.0361 -0.58867,0.0361 z m 1.94711,-1.267629 0.45281,-0.138941 0.52357,-0.27475 0.52357,-0.274747 0.51791,-0.55501 0.51791,-0.555011 0.25523,-0.524534 0.25522,-0.524538 0.1281,-0.604389 0.12809,-0.60439 0.002,-0.504106 0.002,-0.504106 -0.0974,-0.537373 -0.0974,-0.537373 -0.31927,-0.668537 -0.31927,-0.668534 -0.37574,-0.410395 -0.37575,-0.410391 -0.52268,-0.339627 -0.52269,-0.339628 -0.51879,-0.166304 -0.51879,-0.166299 -1.08677,0.0011 -1.08676,0.0011 -0.45282,0.172588 -0.45281,0.172588 -0.6067,0.396173 -0.6067,0.396169 -0.37968,0.471565 -0.37969,0.471562 -0.26423,0.575873 -0.26423,0.575877 -0.10261,0.766927 -0.10262,0.766929 0.10427,0.715416 0.10428,0.71542 0.30743,0.65868 0.30743,0.65868 0.3974,0.446297 0.39738,0.446297 0.53743,0.347356 0.53742,0.347353 0.45953,0.148207 0.45952,0.148206 0.54339,0.05867 0.54337,0.05866 0.4981,-0.03494 0.4981,-0.03495 z m -4.72923,-4.104253 -0.20106,-0.08006 -0.059,-0.235148 -0.059,-0.235151 0.0621,-0.470637 0.0621,-0.470638 0.27703,-0.563438 0.27702,-0.563442 0.47094,-0.445397 0.47094,-0.445393 0.3883,-0.198099 0.3883,-0.198095 0.62932,-0.131216 0.62933,-0.131218 0.24361,0.116188 0.24363,0.116187 0.0276,0.330364 0.0276,0.330365 -0.20623,0.144449 -0.20623,0.144452 h -0.34771 -0.34772 l -0.48278,0.228394 -0.48279,0.228394 -0.36589,0.39695 -0.3659,0.396946 -0.14191,0.477857 -0.1419,0.477852 v 0.237944 0.237945 l -0.11321,0.14401 -0.1132,0.14401 -0.18112,0.04784 -0.18113,0.04784 z m -23.752955,5.213745 -0.4981,-0.113595 -0.40754,-0.162897 -0.407529,-0.162898 -0.429654,-0.321103 -0.42966,-0.321098 -0.260789,-0.32453 -0.260802,-0.324529 -0.226538,-0.449689 -0.226532,-0.449689 -0.147133,-0.651821 -0.147133,-0.651819 v -3.717873 -3.717861 h 0.588662 0.588663 l 6.19e-4,3.599895 6.2e-4,3.599895 0.166188,0.694394 0.166182,0.694396 0.297828,0.464128 0.297835,0.464126 0.405883,0.279259 0.40589,0.279258 0.55576,0.169024 0.55576,0.169028 0.63395,-3.42e-4 0.63394,-3.42e-4 0.45282,-0.120663 0.45282,-0.120659 0.31697,-0.159934 0.31697,-0.15993 0.34729,-0.329636 0.34729,-0.329632 0.16196,-0.316971 0.16197,-0.316972 0.14733,-0.512036 0.14729,-0.512045 v -3.767118 -3.767081 h 0.59378 0.59378 l -0.0308,4.052709 -0.0308,4.052712 -0.19433,0.516357 -0.19433,0.516356 -0.23577,0.402304 -0.23576,0.402307 -0.42777,0.400126 -0.42777,0.400126 -0.50097,0.237 -0.50098,0.236995 -0.61348,0.142275 -0.61348,0.142279 -0.69625,-0.0093 -0.69625,-0.0093 z m -73.356317,0.0038 v -0.03777 l 0.168375,-0.392404 0.168363,-0.392401 0.183546,-0.407537 0.183546,-0.407533 0.610902,-1.358451 0.610914,-1.35845 0.350341,-0.756142 0.350348,-0.756139 v -0.0305 -0.0305 l 0.911431,-2.020833 0.911418,-2.02083 0.325457,-0.701866 0.32547,-0.701866 h 1.055045 1.055051 l 0.169515,0.384895 0.169521,0.384894 0.264878,0.588661 0.264891,0.588662 0.205333,0.452818 0.205346,0.452815 0.838486,1.856549 0.838493,1.856549 0.35046,0.756139 0.350471,0.756142 v 0.03094 0.03094 l 0.369509,0.797792 0.369514,0.797791 0.121828,0.27169 0.121827,0.27169 0.23316,0.523422 0.233174,0.523425 v 0.04538 0.04539 l -1.100516,-0.02543 -1.100509,-0.02543 -0.514083,-1.202528 -0.514083,-1.202529 -0.08931,-0.08931 -0.08932,-0.08931 -2.842473,0.02396 -2.842478,0.02396 -0.411962,0.958219 -0.411955,0.958217 -0.130116,0.33231 -0.130103,0.332312 h -1.069857 -1.069851 z m 8.23535,-4.37719 -0.0062,-0.06792 -1.012926,-2.342381 -1.012933,-2.342384 -0.0829,0.0041 -0.08291,0.0041 -0.21727,0.527056 -0.217265,0.52706 -0.16485,0.362253 -0.164857,0.362252 -0.242489,0.588661 -0.242503,0.588665 -0.123778,0.271868 -0.123779,0.271868 -0.196239,0.452637 -0.19624,0.452639 -0.07963,0.203767 -0.07961,0.203767 h 2.125992 2.125999 z m 5.53028,-1.290527 v -5.705492 h 0.892884 0.892877 l 2.253668,3.758558 2.253673,3.758558 0.154927,-0.203947 0.154932,-0.203945 0.116946,-0.226409 0.116945,-0.226409 0.640848,-1.086761 0.640841,-1.08676 0.907646,-1.539575 0.907639,-1.539578 0.398965,-0.698799 0.398965,-0.698796 0.88299,-0.0031 0.882991,-0.0031 v 3.789059 3.789059 l 0.05972,1.916433 0.05972,1.916432 H 45.671374 44.61649 l -0.0236,-3.760132 -0.02366,-3.760133 -1.844773,3.085103 -1.844766,3.085101 -0.499687,-0.02684 -0.499692,-0.02684 -0.469796,-0.769788 -0.46979,-0.76979 -1.295064,-2.128239 -1.29505,-2.128239 -0.124529,-0.178637 -0.124528,-0.178636 v 3.778531 3.77853 h -0.996194 -0.996195 z m 14.037315,5.647905 v -0.05759 l 0.73372,-1.640477 0.733721,-1.640478 0.217196,-0.475456 0.217196,-0.475457 0.217946,-0.475457 0.21794,-0.47546 0.405203,-0.905633 0.405203,-0.905632 0.588687,-1.31317 0.588687,-1.313168 0.292575,-0.633943 0.292575,-0.633946 0.07821,-0.203767 0.07821,-0.203766 h 1.071573 1.071573 l 0.169044,0.384894 0.169044,0.384895 0.20039,0.452814 0.20039,0.452819 0.291763,0.633942 0.291764,0.633945 0.794943,1.765984 0.79495,1.765988 0.327266,0.708479 0.327278,0.708478 v 0.0306 0.0306 l 0.30836,0.664656 0.308359,0.664656 0.461427,1.016331 0.461427,1.016332 v 0.05057 0.05058 l -1.101661,-0.02543 -1.101655,-0.02543 -0.548706,-1.291756 -0.548706,-1.291756 -2.896014,0.02386 -2.896014,0.02386 -0.411968,0.958218 -0.411961,0.958218 -0.13011,0.332309 -0.13011,0.332312 h -1.06985 -1.069864 z m 8.235357,-4.357378 -0.0062,-0.06792 -1.012933,-2.342381 -1.012926,-2.342384 -0.09057,0.02495 -0.09056,0.02495 -0.877378,2.045734 -0.877371,2.045732 -0.04944,0.135847 -0.04943,0.135843 -0.08913,0.20377 -0.08912,0.203767 h 2.125317 2.125324 z m 5.530276,-1.293936 v -5.714645 l 3.147078,0.03153 3.147071,0.03152 0.623007,0.239471 0.623012,0.239471 0.500634,0.344799 0.500634,0.344802 0.301434,0.409337 0.301427,0.409338 0.191878,0.498099 0.191879,0.498099 0.04702,0.724508 0.04702,0.724504 -0.150404,0.58643 -0.150398,0.58643 -0.222425,0.379538 -0.222424,0.379541 -0.36485,0.357645 -0.36485,0.357642 -0.489483,0.26265 -0.489478,0.262647 0.640005,0.904233 0.640005,0.904232 0.675229,0.976325 0.675235,0.976328 -1.15218,-0.0254 -1.152174,-0.0254 -0.536774,-0.769789 -0.536781,-0.769789 -0.606491,-0.881197 -0.606485,-0.881196 -1.514892,-0.0017 -1.514893,-0.0017 -0.02465,1.652779 -0.02466,1.652783 -1.06412,0.0255 -1.064115,0.0255 z m 6.072406,0.383303 0.502759,-0.198328 0.285079,-0.294551 0.285079,-0.294552 0.140437,-0.336701 0.140436,-0.336703 -0.0019,-0.614213 -0.0019,-0.614214 -0.166256,-0.365996 -0.16625,-0.366 -0.306538,-0.257938 -0.306539,-0.257933 -0.408213,-0.180703 -0.408207,-0.180704 -1.743345,-0.0448 -1.743345,-0.04479 v 2.329566 2.329566 l 1.698061,-0.03635 1.698067,-0.03635 z m 4.795196,5.249586 v -0.08176 l 0.416,-0.939954 0.415995,-0.939953 0.227882,-0.498096 0.227883,-0.498099 0.99485,-2.218802 0.99485,-2.218805 0.292079,-0.633943 0.292092,-0.633942 0.582319,-1.334733 0.582319,-1.334733 1.083367,0.02156 1.083375,0.02156 0.42979,0.950917 0.42979,0.950913 0.226036,0.4981 0.22603,0.498099 0.262574,0.588661 0.262579,0.588661 0.185517,0.407537 0.185522,0.407534 1.101574,2.445211 1.101575,2.44521 0.142753,0.316972 0.14276,0.31697 0.213554,0.447127 0.213553,0.447125 v 0.03111 0.03112 l -1.107955,-0.02543 -1.107955,-0.02543 -0.551153,-1.267889 -0.551158,-1.267888 -2.894119,-0.02386 -2.894119,-0.02386 -0.548693,1.291756 -0.548687,1.291756 -1.05639,0.0255 -1.056389,0.0255 z m 8.157072,-4.474796 -0.07971,-0.20377 -0.720278,-1.675422 -0.720277,-1.675422 -0.180628,-0.407533 -0.180616,-0.407537 -0.06158,-0.173628 -0.06158,-0.173632 -0.08193,0.08307 -0.08193,0.08307 -1.001856,2.339869 -1.001863,2.339865 v 0.03742 0.03742 h 2.125999 2.125999 z m 22.00053,-1.154684 v -5.705492 l 0.52074,0.0037 0.52074,0.0037 0.55213,0.698214 0.55212,0.698217 1.97714,2.490492 1.97714,2.490491 1.09327,1.373249 1.09327,1.373247 0.0235,-4.565609 0.0235,-4.565605 h 0.63312 0.63311 l -0.001,5.592288 -10e-4,5.592287 -0.0753,0.118736 -0.0753,0.118732 -0.44405,-0.02817 -0.44406,-0.02817 -0.79492,-0.996198 -0.79491,-0.996194 -0.20128,-0.263647 -0.20129,-0.26365 -0.37174,-0.460858 -0.37174,-0.460861 -1.61299,-2.037675 -1.613,-2.037673 -0.70952,-0.88833 -0.70952,-0.88833 v 4.669349 4.669348 h -0.58867 -0.58866 z m 24.85553,-4.116518 -0.2223,-0.222292 v -1.269582 -1.269583 l -1.33246,-0.02506 -1.33247,-0.02506 -0.1338,-0.238611 -0.1338,-0.238615 0.15519,-0.2368417 0.15518,-0.236845 h 1.85446 1.85447 v 1.8514117 1.851415 l -0.20128,0.140981 -0.20128,0.140981 h -0.11981 -0.11981 z M 25.958383,10.843494 v -0.07054 l 0.568461,-0.563404 0.568454,-0.5634037 1.084322,1.81e-4 1.084328,1.82e-4 -0.950916,0.6336167 -0.950917,0.633617 -0.701866,1.78e-4 -0.701866,1.81e-4 z"
       id="path9" />
  </g>
</svg>
