<?xml version="1.0" encoding="UTF-8" standalone="no"?>
<!-- Created with Inkscape (http://www.inkscape.org/) -->

<svg
   width="19.103666mm"
   height="18.035101mm"
   viewBox="0 0 19.103665 18.035101"
   version="1.1"
   id="svg1"
   inkscape:version="1.4.2 (ebf0e940d0, 2025-05-08)"
   sodipodi:docname="logo-mini.svg"
   xmlns:inkscape="http://www.inkscape.org/namespaces/inkscape"
   xmlns:sodipodi="http://sodipodi.sourceforge.net/DTD/sodipodi-0.dtd"
   xmlns="http://www.w3.org/2000/svg"
   xmlns:svg="http://www.w3.org/2000/svg">
  <sodipodi:namedview
     id="namedview1"
     pagecolor="#ffffff"
     bordercolor="#000000"
     borderopacity="0.25"
     inkscape:showpageshadow="2"
     inkscape:pageopacity="0.0"
     inkscape:pagecheckerboard="0"
     inkscape:deskcolor="#d1d1d1"
     inkscape:document-units="mm"
     inkscape:zoom="9.2396245"
     inkscape:cx="59.634458"
     inkscape:cy="35.986311"
     inkscape:window-width="1920"
     inkscape:window-height="1017"
     inkscape:window-x="0"
     inkscape:window-y="0"
     inkscape:window-maximized="1"
     inkscape:current-layer="layer1" />
  <defs
     id="defs1" />
  <g
     inkscape:label="Layer 1"
     inkscape:groupmode="layer"
     id="layer1"
     transform="translate(-7.758868,-9.0170628)">
    <path
       d="m 15.622077,25.09478 -0.40754,-0.02728 -0.40753,-0.09867 -0.40754,-0.09867 -0.4981,-0.186882 -0.4981,-0.186882 -0.60598,-0.396437 -0.60599,-0.396432 -0.41562,-0.462269 -0.41562,-0.462269 -0.3062,-0.553148 -0.30619,-0.553153 -0.19775,-0.633942 -0.19775,-0.633946 -0.007,-1.08676 -0.007,-1.086761 0.15498,-0.588661 0.15498,-0.588661 0.26537,-0.54338 0.26538,-0.54338 0.37341,-0.452819 0.3734,-0.452814 0.45864,-0.378645 0.45863,-0.378641 0.55623,-0.282328 0.55624,-0.282332 0.67463,-0.175185 0.67464,-0.17519 0.86035,-1.78e-4 0.86035,-1.81e-4 0.70939,0.178749 0.70939,0.178749 0.64128,0.336984 0.64128,0.336985 0.59991,0.592276 0.59991,0.592276 0.28352,0.498099 0.28352,0.498099 0.18915,0.498099 0.18915,0.498099 0.10722,0.800198 0.10723,0.800198 -0.10606,0.829943 -0.10605,0.829942 -0.17311,0.469837 -0.17311,0.469836 -0.2974,0.526362 -0.2974,0.526361 -0.64194,0.633943 -0.64195,0.633942 -0.67801,0.333203 -0.67803,0.333202 -0.54337,0.13279 -0.54338,0.13279 -0.58866,0.0361 -0.58867,0.0361 z m 1.94711,-1.267629 0.45281,-0.138941 0.52357,-0.27475 0.52357,-0.274747 0.51791,-0.55501 0.51791,-0.555011 0.25523,-0.524534 0.25522,-0.524538 0.1281,-0.604389 0.12809,-0.60439 0.002,-0.504106 0.002,-0.504106 -0.0974,-0.537373 -0.0974,-0.537373 -0.31927,-0.668537 -0.31927,-0.668534 -0.37574,-0.410395 -0.37575,-0.410391 -0.52268,-0.339627 -0.52269,-0.339628 -0.51879,-0.166304 -0.51879,-0.166299 -1.08677,0.0011 -1.08676,0.0011 -0.45282,0.172588 -0.45281,0.172588 -0.6067,0.396173 -0.6067,0.396169 -0.37968,0.471565 -0.37969,0.471562 -0.26423,0.575873 -0.26423,0.575877 -0.10261,0.766927 -0.10262,0.766929 0.10427,0.715416 0.10428,0.71542 0.30743,0.65868 0.30743,0.65868 0.3974,0.446297 0.39738,0.446297 0.53743,0.347356 0.53742,0.347353 0.45953,0.148207 0.45952,0.148206 0.54339,0.05867 0.54337,0.05866 0.4981,-0.03494 0.4981,-0.03495 z m -4.72923,-4.104253 -0.20106,-0.08006 -0.059,-0.235148 -0.059,-0.235151 0.0621,-0.470637 0.0621,-0.470638 0.27703,-0.563438 0.27702,-0.563442 0.47094,-0.445397 0.47094,-0.445393 0.3883,-0.198099 0.3883,-0.198095 0.62932,-0.131216 0.62933,-0.131218 0.24361,0.116188 0.24363,0.116187 0.0276,0.330364 0.0276,0.330365 -0.20623,0.144449 -0.20623,0.144452 h -0.34771 -0.34772 l -0.48278,0.228394 -0.48279,0.228394 -0.36589,0.39695 -0.3659,0.396946 -0.14191,0.477857 -0.1419,0.477852 v 0.237944 0.237945 l -0.11321,0.14401 -0.1132,0.14401 -0.18112,0.04784 -0.18113,0.04784 z m 10.34004,-4.56669 -0.2223,-0.222292 v -1.269582 -1.269583 l -1.33246,-0.02506 -1.33247,-0.02506 -0.1338,-0.238611 -0.1338,-0.238615 0.15519,-0.236842 0.15518,-0.236845 h 1.85446 1.85447 v 1.851412 1.851415 l -0.20128,0.140981 -0.20128,0.140981 h -0.11981 -0.11981 z"
       style="fill:#000000;stroke-width:0.0905632"
       id="path1" />
  </g>
</svg>
